{"title":"Sleeping.Beauty.2014.BRRip.XviD-KX","uid":10337527,"size":1161629526,"categoryP":"video","categoryS":"movies","magnet":"?xt=urn:btih:24935c96732ceb428bea0231be4475ca8c557cef&amp;dn=Sleeping.Beauty.2014.BRRip.XviD-KX&amp;tr=udp%3A%2F%2Ftracker.openbittorrent.com%3A80&amp;tr=udp%3A%2F%2Fopen.demonii.com%3A1337&amp;tr=udp%3A%2F%2Ftracker.coppersurfer.tk%3A6969&amp;tr=udp%3A%2F%2Fexodus.desync.com%3A6969","seeders":1,"leechers":0,"uploader":"Xetron","files":3,"time":1402496824,"description":"KX proundly presents...\n\n\n[b]Sleeping.Beauty.2014.BRRip.XviD-KX[/b]\n\n[img]http://s28.postimg.org/xjut4oeod/111.jpg[/img]\n &lt;a href=&quot;\nhttp://www.imdb.com/title/tt3343136/&quot; rel=&quot;nofollow&quot; target=&quot;_NEW&quot;&gt;\nhttp://www.imdb.com/title/tt3343136/&lt;/a&gt;\n\nWhen a young Prince and his trusted aid learn of a beautiful Princess's cursed eternal slumber, they embark on a journey to rescue her. They must battle an evil queen and legions of undead monsters before she will be free.\n\n[b]General[/b]\n\nFormat                                   : AVI\nFormat/Info                              : Audio Video Interleave\nFormat profile                           : OpenDML\nFile size                                : 1.08 GiB\nDuration                                 : 1h 28mn\nOverall bit rate                         : 1 744 Kbps\nWriting application                      : Lavf53.21.1\n\n[b]Video[/b]\n\nID                                       : 0\nFormat                                   : xvid\nCodec ID                                 : xvid\nDuration                                 : 1h 28mn\nBit rate                                 : 1 600 Kbps\nWidth                                    : 640 pixels\nHeight                                   : 360 pixels\nDisplay aspect ratio                     : 16:9\nFrame rate                               : 23.976 fps\nBits/(Pixel*Frame)                       : 0.290\nStream size                              : 1 016 MiB (92%)\nTitle                                    : English\n\n[b]Audio[/b]\n\nID                                       : 1\nFormat                                   : MPEG Audio\nFormat version                           : Version 1\nFormat profile                           : Layer 3\nMode                                     : Joint stereo\nMode extension                           : MS Stereo\nCodec ID                                 : 55\nCodec ID/Hint                            : MP3\nDuration                                 : 1h 28mn\nBit rate mode                            : Constant\nBit rate                                 : 128 Kbps\nChannel(s)                               : 2 channels\nSampling rate                            : 48.0 KHz\nCompression mode                         : Lossy\nStream size                              : 81.3 MiB (7%)\nAlignment                                : Aligned on interleaves\nInterleave, duration                     : 24 ms (0.58 video frame)\nTitle                                    : English\nWriting library                          : LAME3.99.3\n\nNeed to contact KX? kxsqaud @ gmail . com\n\n[b]Screens[/b]\n\n[img]http://s28.postimg.org/hs4dvdiz1/vlcsnap_2014_06_11_11h01m54s175.png[/img]\n[img]http://s28.postimg.org/wpcuwdw7h/vlcsnap_2014_06_11_11h01m58s231.png[/img]\n[img]http://s28.postimg.org/fz1h71xsd/vlcsnap_2014_06_11_11h02m02s15.png[/img]\n[img]http://s28.postimg.org/f0l44rkgd/vlcsnap_2014_06_11_11h02m08s75.png[/img]","torrent":{"xt":"urn:btih:24935c96732ceb428bea0231be4475ca8c557cef","amp;dn":"Sleeping.Beauty.2014.BRRip.XviD-KX","amp;tr":["udp%3A%2F%2Ftracker.openbittorrent.com%3A80","udp%3A%2F%2Fopen.demonii.com%3A1337","udp%3A%2F%2Ftracker.coppersurfer.tk%3A6969","udp%3A%2F%2Fexodus.desync.com%3A6969"],"infoHash":"24935c96732ceb428bea0231be4475ca8c557cef","infoHashBuffer":{"type":"Buffer","data":[36,147,92,150,115,44,235,66,139,234,2,49,190,68,117,202,140,85,124,239]},"announce":[],"urlList":[]}}